<?xml version="1.0" standalone="no"?>
<!DOCTYPE svg PUBLIC "-//W3C//DTD SVG 20010904//EN"
 "http://www.w3.org/TR/2001/REC-SVG-20010904/DTD/svg10.dtd">
<svg version="1.0" xmlns="http://www.w3.org/2000/svg"
 width="824.000000pt" height="823.000000pt" viewBox="0 0 824.000000 823.000000"
 preserveAspectRatio="xMidYMid meet">

<g transform="translate(0.000000,823.000000) scale(0.100000,-0.100000)"
fill="#ffd701" stroke="none">
<path fill="#e4246c" d="M3891 8219 c-995 -56 -1923 -465 -2635 -1159 -534 -521 -888 -1110
-1095 -1822 -103 -353 -154 -725 -154 -1123 0 -478 68 -889 222 -1338 278
-811 825 -1533 1541 -2034 1231 -862 2843 -977 4194 -301 562 281 1070 706
1451 1214 407 541 675 1182 774 1844 33 223 44 373 44 615 0 478 -68 889 -222
1338 -278 811 -825 1533 -1541 2034 -627 439 -1355 688 -2140 733 -192 11
-241 11 -439 -1z m239 -227 l0 -59 -172 -6 c-1034 -37 -2039 -525 -2729 -1325
-217 -251 -384 -503 -534 -807 -268 -544 -395 -1081 -395 -1680 0 -599 127
-1136 395 -1680 198 -401 430 -720 751 -1037 609 -599 1351 -957 2224 -1075
193 -26 707 -26 900 0 323 44 624 118 897 223 781 298 1431 829 1888 1544 106
166 276 508 345 693 148 399 240 873 240 1240 l0 97 62 0 61 0 -6 -167 c-39
-1009 -459 -1947 -1189 -2658 -872 -851 -2064 -1242 -3288 -1079 -1259 167
-2377 957 -2965 2097 -216 417 -352 865 -412 1347 -25 205 -25 705 0 910 154
1246 852 2311 1935 2949 551 325 1248 522 1875 530 l117 1 0 -58z m240 -242
c744 -53 1452 -330 2035 -796 142 -114 447 -418 559 -559 437 -549 703 -1187
782 -1880 24 -205 24 -595 0 -800 -79 -693 -345 -1331 -782 -1880 -112 -141
-417 -445 -559 -559 -1062 -849 -2498 -1041 -3740 -501 -277 120 -591 310
-830 501 -142 114 -447 418 -559 559 -437 549 -703 1187 -782 1880 -24 205
-24 595 0 800 79 693 345 1331 782 1880 112 141 417 445 559 559 718 574 1628
860 2535 796z"/>
<path fill="#ffd701" d="M3880 7544 c-637 -57 -1175 -242 -1674 -576 -951 -638 -1526 -1712
-1526 -2853 0 -871 335 -1711 937 -2354 543 -579 1286 -955 2084 -1056 178
-22 450 -31 522 -16 147 31 285 138 351 273 33 65 68 200 55 211 -2 3 -44 -2
-94 -9 -609 -92 -1290 31 -1840 333 -917 504 -1516 1457 -1552 2472 -6 162 -5
175 12 187 11 8 29 14 42 14 40 0 50 -34 56 -185 42 -1016 639 -1946 1551
-2416 421 -217 842 -319 1316 -319 161 0 383 17 473 36 25 5 28 9 22 32 -28
120 -139 263 -245 317 -97 49 -130 57 -300 66 -195 11 -300 23 -431 49 -347
71 -685 223 -974 440 -113 85 -354 319 -437 425 -437 558 -610 1252 -483 1941
89 478 315 905 664 1255 285 284 565 461 934 588 263 90 480 125 777 125 297
0 514 -35 777 -125 367 -126 649 -303 929 -583 182 -182 296 -332 411 -541
186 -337 280 -681 298 -1100 4 -77 13 -165 22 -195 43 -160 166 -292 322 -346
36 -13 66 -22 68 -21 1 1 10 56 20 122 25 169 25 590 0 760 -53 353 -140 627
-296 931 -356 692 -980 1210 -1731 1437 -222 67 -533 117 -733 117 -91 0 -100
2 -122 25 -31 30 -31 40 0 71 25 25 27 25 138 19 595 -33 1080 -189 1547 -500
747 -497 1232 -1300 1320 -2184 21 -213 7 -657 -26 -786 -5 -22 -4 -23 38 -18
118 13 222 65 308 152 138 140 168 274 140 616 -68 799 -385 1515 -927 2094
-543 579 -1278 952 -2084 1056 -118 16 -556 28 -659 19z m-137 -371 c21 -76
29 -68 -102 -100 -97 -23 -117 -31 -112 -44 5 -14 18 -13 118 10 62 13 114 23
117 20 2 -2 7 -22 10 -44 l7 -40 -110 -24 c-61 -13 -112 -25 -115 -28 -2 -2 2
-28 10 -56 8 -29 14 -57 14 -63 0 -13 -118 -39 -128 -29 -7 6 -83 328 -79 331
2 1 346 81 359 83 4 1 9 -7 11 -16z m-404 -169 c1 -6 -26 -22 -59 -34 -33 -12
-63 -26 -65 -30 -3 -5 14 -56 36 -115 24 -61 38 -110 33 -115 -5 -5 -33 -18
-62 -29 l-53 -21 -13 32 c-8 18 -28 70 -46 116 -17 45 -33 82 -35 82 -1 0 -32
-11 -69 -25 l-66 -25 -15 36 c-8 20 -15 42 -15 48 0 7 89 46 198 88 l197 75
17 -36 c9 -20 17 -41 17 -47z m-440 -180 c17 -14 29 -29 26 -34 -3 -4 -29 -21
-58 -37 -40 -23 -61 -29 -93 -25 -44 4 -91 -14 -131 -51 -43 -39 -23 -117 33
-131 57 -15 164 62 164 116 0 7 27 28 60 46 l60 33 11 -28 c27 -70 -27 -154
-145 -225 -142 -86 -242 -84 -307 4 -58 81 -52 156 20 228 77 77 186 129 273
129 47 1 62 -3 87 -25z"/>
<path fill="#ffd701" d="M2398 4468 c-3 -73 -8 -141 -13 -151 -4 -10 -20 -21 -36 -24 -28 -5
-29 -8 -29 -64 l0 -59 53 0 c30 0 67 7 86 18 61 30 72 57 84 191 l11 121 88 0
88 0 0 -165 0 -165 80 0 80 0 0 215 0 215 -244 0 -244 0 -4 -132z"/>
<path fill="#ffd701" d="M2950 4385 l0 -215 245 0 245 0 0 55 0 55 -165 0 -165 0 0 30 0 30
160 0 160 0 0 50 0 49 -157 3 -158 3 -3 28 -3 27 160 0 161 0 0 50 0 50 -240
0 -240 0 0 -215z"/>
<path fill="#ffd701" d="M3470 4545 l0 -55 95 0 95 0 0 -160 0 -160 80 0 80 0 0 160 0 160 95
0 95 0 0 55 0 55 -270 0 -270 0 0 -55z"/>
<path fill="#ffd701" d="M4050 4385 l0 -215 80 0 79 0 3 83 3 82 138 3 137 3 0 -86 0 -85 80
0 80 0 0 215 0 215 -80 0 -80 0 0 -75 0 -75 -140 0 -140 0 0 75 0 75 -80 0
-80 0 0 -215z"/>
<path fill="#ffd701" d="M4793 4588 c-17 -6 -44 -24 -60 -40 -24 -25 -28 -37 -28 -88 0 -70
22 -100 96 -128 l48 -18 -79 -69 -80 -70 96 -3 96 -3 78 71 c70 63 82 70 119
70 l41 0 0 -70 0 -70 80 0 80 0 0 215 0 215 -227 -1 c-126 -1 -242 -6 -260
-11z m322 -133 l0 -40 -103 -3 c-113 -3 -142 6 -142 43 0 37 26 45 140 42
l105 -2 0 -40z"/>
<path fill="#ffd701" d="M5403 4581 c-51 -24 -73 -63 -73 -131 0 -43 5 -56 28 -80 16 -16 49
-34 73 -40 l44 -12 -80 -74 -80 -73 100 -1 101 0 69 70 c64 65 73 70 112 70
l43 0 0 -70 0 -70 80 0 80 0 0 215 0 215 -227 0 c-202 0 -233 -3 -270 -19z
m337 -126 l0 -45 -107 0 c-85 0 -110 3 -125 17 -22 20 -23 31 -1 55 14 15 32
18 125 18 l108 0 0 -45z"/>
<path fill="#ffd701" d="M3988 3900 c-72 -12 -150 -51 -177 -89 -44 -61 -45 -193 -3 -251 53
-71 127 -95 297 -95 75 0 147 5 171 13 103 31 154 97 154 201 0 150 -85 216
-289 225 -53 3 -122 1 -153 -4z m225 -127 c16 -8 35 -30 43 -50 42 -99 -70
-175 -211 -144 -141 32 -138 183 3 212 48 9 129 1 165 -18z"/>
<path fill="#ffd701" d="M2340 3685 l0 -215 420 0 420 0 0 215 0 215 -80 0 -80 0 0 -160 0
-160 -90 0 -90 0 0 160 0 160 -80 0 -80 0 0 -160 0 -160 -90 0 -90 0 0 160 0
160 -80 0 -80 0 0 -215z"/>
<path fill="#ffd701" d="M3240 3685 l0 -215 80 0 79 0 3 95 3 95 105 -95 105 -95 105 0 105 0
-80 72 c-44 40 -101 93 -128 118 l-47 45 122 95 123 95 -98 3 -98 3 -104 -86
c-58 -47 -107 -85 -110 -85 -3 0 -5 38 -5 85 l0 85 -80 0 -80 0 0 -215z"/>
<path fill="#ffd701" d="M4518 3767 c-6 -145 -15 -177 -53 -177 -24 0 -25 -3 -25 -60 l0 -60
55 0 c119 0 156 44 162 190 6 139 -1 130 103 130 l90 0 0 -160 0 -160 80 0 80
0 0 215 0 215 -244 0 -243 0 -5 -133z"/>
<path fill="#ffd701" d="M5161 3723 c-49 -98 -96 -195 -104 -216 l-16 -37 80 0 79 0 17 35 17
35 126 0 126 0 17 -35 17 -35 85 0 c47 0 85 3 85 8 0 4 -49 99 -108 212 l-108
205 -112 3 -112 3 -89 -178z m234 0 c17 -36 32 -70 33 -75 2 -4 -28 -8 -67 -8
-40 0 -71 4 -71 10 0 13 63 140 70 140 3 0 19 -30 35 -67z"/>
</g>
</svg>
